# xmcd
#
# Track frame offsets:
#	150
#	12066
#	25375
#	37658
#	50824
#	62008
#	75942
#	88717
#	100804
#	113582
#	125871
#	138358
#
# Disc length: 2000 seconds
#
# Revision: 0
# Processed by: cddbd v1.5.2PL0 Copyright (c) Steve Scherf et al.
# Submitted via: EasyCDDAExtractor 4.6.9.1
#
DISCID=9007ce0c
DTITLE=The Louvin Brothers - Ira and Charles - MGM E 3426
DYEAR=1957
DGENRE=Country
TTITLE0=The Get Acquainted Waltz
TTITLE1=Weapon Of Prayer
TTITLE2=They've Got The Church Outnumbered
TTITLE3=Do You Live What You Preach
TTITLE4=You'll Be Rewarded Over There
TTITLE5=I'll Live With God (To Die No More)
TTITLE6=(I'm Changing The Words To) My Love Song Of You
TTITLE7=Robe Of White
TTITLE8=The Great Atomic Power
TTITLE9=Insured Beyond The Grave
TTITLE10=The Gospel Way
TTITLE11=The Sons And Daughters Of God
EXTD=
EXTT0=
EXTT1=
EXTT2=
EXTT3=
EXTT4=
EXTT5=
EXTT6=
EXTT7=
EXTT8=
EXTT9=
EXTT10=
EXTT11=
PLAYORDER=
